<svg width="76" height="44" viewBox="0 0 76 44" fill="none" xmlns="http://www.w3.org/2000/svg">
<path fill-rule="evenodd" clip-rule="evenodd" d="M8.72909 6.1665C10.4613 6.1665 11.9937 8.19891 12.9262 10.4297C13.6119 9.32822 14.4949 8.51105 15.4583 8.51105C17.6444 8.51105 19.4166 12.7192 19.4166 14.9053C19.4166 17.0914 17.6444 18.8636 15.4583 18.8636C14.3873 18.8636 13.4156 18.4383 12.703 17.7473C11.7605 18.8936 10.3302 19.6248 8.72909 19.6248C5.88712 19.6248 3.58325 17.321 3.58325 14.479C3.58325 13.7556 3.73253 12.8619 4.00196 11.9314L4.1247 11.5308C4.96922 8.91714 6.71387 6.1665 8.72909 6.1665ZM8.72909 19.6248C11.5711 19.6248 13.8749 17.321 13.8749 14.479C13.8749 13.7556 13.7256 12.8619 13.4562 11.9314L13.3335 11.5308C12.4889 8.91714 10.7443 6.1665 8.72909 6.1665C6.71387 6.1665 4.96922 8.91714 4.1247 11.5308L4.00196 11.9314C3.73253 12.8619 3.58325 13.7556 3.58325 14.479C3.58325 17.321 5.88712 19.6248 8.72909 19.6248Z" stroke="black" stroke-width="1.94954" stroke-linecap="round"/>
<path fill-rule="evenodd" clip-rule="evenodd" d="M35.0572 10.1591C40.0831 7.0243 46.6986 8.55729 49.8335 13.5832L49.5858 13.9621C48.9899 14.8334 48.268 15.6127 47.4432 16.2741C43.2271 19.6552 37.2386 19.3339 33.407 15.7419C32.7926 17.3259 31.1985 18.3946 29.4147 18.2652L29.2501 18.2498V17.9706C29.2501 16.2972 29.9828 14.7686 31.1699 13.7227C30.0663 12.8664 29.3395 11.5559 29.2578 10.0824L29.2501 9.8043V8.9165L29.4747 8.92553C31.1616 9.03489 32.6059 10.069 33.2877 11.5399C33.8254 11.0207 34.4189 10.5572 35.0572 10.1591ZM41.2071 18.6226L41.3497 18.6156C40.5599 19.4021 39.5918 19.9995 38.49 20.323C37.6339 20.5743 36.7723 20.6382 35.9414 20.5377C36.3471 19.7137 36.6618 18.8327 36.8752 17.9149C38.2562 18.4473 39.7338 18.6865 41.2071 18.6226ZM42.2645 8.49168L42.3766 8.66049C40.2537 8.33037 38.0234 8.63322 35.9893 9.63939C35.3677 8.32593 34.5339 7.18097 33.5518 6.24533C33.9755 6.00976 34.4293 5.81736 34.9083 5.67672C37.7356 4.84664 40.6232 6.06052 42.2645 8.49168Z" stroke="black" stroke-width="1.94954" stroke-linecap="round"/>
<path fill-rule="evenodd" clip-rule="evenodd" d="M44.9585 12.5666V12.4583V12.5666Z" stroke="black" stroke-width="2.92431" stroke-linecap="round" stroke-linejoin="round"/>
<path d="M62.5832 3.87476H67.3748M60.9612 11.0733L61.8513 9.6598C62.6318 8.42021 63.1335 7.02575 63.3216 5.57303L63.5415 3.87476H66.4165L66.6153 5.46532C66.8 6.94274 67.3045 8.36216 68.0936 9.62476L69.0002 11.0753C69.1906 11.3799 69.2915 11.7319 69.2915 12.0911V19.2081C69.2915 20.2666 68.4334 21.1248 67.3748 21.1248H62.5832C61.5246 21.1248 60.6665 20.2666 60.6665 19.2081V12.0946C60.6665 11.7332 60.7687 11.3791 60.9612 11.0733ZM60.6665 14.4164L61.2686 14.6171C62.6921 15.0916 64.2578 14.8375 65.4582 13.9373L65.6605 13.7855C66.6528 13.0413 67.9618 12.8869 69.0937 13.3668L69.2915 13.4581V19.2081C69.2915 20.2666 68.4334 21.1248 67.3748 21.1248H62.5832C61.5246 21.1248 60.6665 20.2666 60.6665 19.2081V14.4164Z" stroke="black" stroke-width="1.94954" stroke-linecap="round"/>
<g clip-path="url(#clip0_74_175)">
<path fill-rule="evenodd" clip-rule="evenodd" d="M6.32818 40.8538C5.81562 41.3419 4.98459 41.3419 4.47202 40.8538C4.0681 40.4691 3.98249 39.896 4.21519 39.4315L4.10927 39.3306C3.6215 39.5523 3.0198 39.4707 2.61587 39.086C2.10331 38.5979 2.10331 37.8064 2.61587 37.3183C3.12843 36.8301 3.95946 36.8301 4.47202 37.3183C4.58066 37.4217 4.66627 37.5388 4.72885 37.6637L6.32653 36.1415C6.49396 36.3653 6.68306 36.5788 6.89382 36.7796C7.1048 36.9805 7.32927 37.1607 7.56445 37.3203L5.96626 38.8418C6.09712 38.9014 6.21977 38.9828 6.32818 39.086C6.84074 39.5742 6.84074 40.3656 6.32818 40.8538ZM10.8507 25.9413L10.8624 25.9289C11.8875 24.9526 14.3806 25.744 16.4309 27.6966C18.4811 29.6493 19.3122 32.0236 18.287 32.9999L14.3184 36.7796C12.2682 38.7322 8.94407 38.7322 6.89382 36.7796C4.84357 34.8269 4.84357 31.6611 6.89382 29.7085L10.8507 25.9413ZM10.8624 25.9289C9.83729 26.9052 10.6683 29.2796 12.7186 31.2322C14.7688 33.1848 17.2619 33.9763 18.287 32.9999C19.3122 32.0236 18.4811 29.6493 16.4309 27.6966C14.3806 25.744 11.8875 24.9526 10.8624 25.9289ZM13.3373 28.2859C12.9956 28.6113 13.2726 29.4028 13.956 30.0537C14.6394 30.7045 15.4705 30.9684 15.8122 30.6429C16.1539 30.3175 15.8769 29.526 15.1934 28.8752C14.51 28.2243 13.679 27.9605 13.3373 28.2859Z" stroke="black" stroke-width="1.94954" stroke-linecap="round"/>
</g>
<path d="M32.5835 29.3333L34.4667 29.6472C34.6354 29.6753 34.8062 29.6895 34.9773 29.6895C36.6928 29.6895 38.0835 28.2988 38.0835 26.5833L36.2501 27.5V24.75L36.0671 24.7545C34.1271 24.8498 32.5835 26.453 32.5835 28.4167V29.3333ZM32.5835 29.3333V29.9196C32.5835 30.7282 32.8508 31.5142 33.3438 32.1552L34.4168 33.55M33.9585 33.9167H32.7999C32.1054 33.9167 31.4706 34.309 31.1601 34.9301L30.7501 35.75M33.3168 36.6667H32.7999C32.1054 36.6667 31.4706 37.059 31.1601 37.6801L30.7501 38.5M35.7918 39.4167H34.6332C33.9388 39.4167 33.304 39.809 32.9934 40.4301L32.5835 41.25M44.0418 33.9167H45.2004C45.8948 33.9167 46.5296 34.309 46.8402 34.9301L47.2501 35.75M44.6835 36.6667H45.2004C45.8948 36.6667 46.5296 37.059 46.8402 37.6801L47.2501 38.5M42.2085 39.4167H43.3671C44.0615 39.4167 44.6963 39.809 45.0068 40.4301L45.4168 41.25M45.4168 29.3333V29.9196C45.4168 30.7282 45.1495 31.5142 44.6564 32.1552L43.5835 33.55M45.4168 29.3333L43.5336 29.6472C43.3648 29.6753 43.194 29.6895 43.0229 29.6895C41.3075 29.6895 39.9168 28.2988 39.9168 26.5833L41.7501 27.5V24.75L41.9331 24.7545C43.8731 24.8498 45.4168 26.453 45.4168 28.4167V29.3333ZM35.5997 39.2541L36.3647 39.7031C37.9919 40.6582 40.0084 40.6582 41.6355 39.7031L42.4006 39.2541C43.5926 38.5544 44.4372 37.3875 44.7293 36.0365C44.9663 34.9404 44.2699 33.8598 43.1738 33.6228L43.1082 33.6097L42.0939 33.4583C40.0426 33.1544 37.9577 33.1544 35.9064 33.4583L34.958 33.5988C33.8487 33.7632 33.0827 34.7956 33.247 35.9049C33.2536 35.949 33.2615 35.9929 33.271 36.0365C33.5631 37.3875 34.4076 38.5544 35.5997 39.2541Z" stroke="black" stroke-width="1.94954" stroke-linecap="round"/>
<path fill-rule="evenodd" clip-rule="evenodd" d="M37.6251 31.7167V31.625V31.7167Z" stroke="black" stroke-width="2.92431" stroke-linecap="round" stroke-linejoin="round"/>
<path fill-rule="evenodd" clip-rule="evenodd" d="M40.375 31.7167V31.625V31.7167Z" stroke="black" stroke-width="2.92431" stroke-linecap="round" stroke-linejoin="round"/>
<defs>
<clipPath id="clip0_74_175">
<rect width="21" height="20" fill="white" transform="translate(0 23)"/>
</clipPath>
</defs>
</svg>
