<svg width="25" height="13" viewBox="0 0 25 13" fill="none" xmlns="http://www.w3.org/2000/svg">
<path d="M24.5209 2.57199L13.7965 12.478C13.416 12.8345 12.9932 13 12.5 13C12.0068 13 11.5558 12.8217 11.1894 12.478L0.479143 2.57199C0.169109 2.27914 0 1.93536 0 1.51518C0 0.662096 0.732807 0 1.66291 0C2.11387 0 2.55073 0.165524 2.87486 0.458374L12.4859 9.38394L22.1251 0.458374C22.4493 0.165524 22.872 0 23.3371 0C24.2672 0 25 0.662096 25 1.51518C25 1.92262 24.8309 2.27914 24.5209 2.57199Z" fill="black" fill-opacity="0.5"/>
</svg>
