<svg width="25" height="13" viewBox="0 0 25 13" fill="none" xmlns="http://www.w3.org/2000/svg">
<path d="M0.479143 10.428L11.2035 0.522037C11.584 0.165524 12.0068 0 12.5 0C12.9932 0 13.4442 0.178257 13.8106 0.522037L24.5209 10.428C24.8309 10.7209 25 11.0646 25 11.4848C25 12.3379 24.2672 13 23.3371 13C22.8861 13 22.4493 12.8345 22.1251 12.5416L12.5141 3.61606L2.87486 12.5416C2.55073 12.8345 2.12796 13 1.66291 13C0.732807 13 0 12.3379 0 11.4848C0 11.0774 0.169109 10.7209 0.479143 10.428Z" fill="black" fill-opacity="0.5"/>
</svg>
