<svg width="117" height="117" viewBox="0 0 117 117" fill="none" xmlns="http://www.w3.org/2000/svg">
<path d="M98.45 100.831L92.0002 100.885C90.3267 100.898 88.9207 99.5154 88.9069 97.8419L88.8536 91.3921C88.8395 89.6837 90.188 88.3128 91.8964 88.2987L98.3462 88.2455C100.055 88.2314 101.425 89.5799 101.44 91.2882L101.493 97.7381C101.507 99.4464 100.158 100.817 98.45 100.831Z" fill="#212121"/>
<path d="M84.8092 86.5591L20.8983 87.0864C19.7047 87.0962 18.6839 86.1239 18.6737 84.8889L18.5916 74.9364C18.5817 73.7377 19.5499 72.7126 20.7796 72.7025L84.6905 72.1752C85.8841 72.1653 86.9049 73.1377 86.9151 74.3727L86.9975 84.3615C87.0074 85.5602 86.0389 86.549 84.8092 86.5591ZM22.2286 79.883C22.2368 80.876 23.0484 81.6743 24.0414 81.6661L63.5972 81.3398C64.5902 81.3316 65.3885 80.52 65.3803 79.527C65.3721 78.534 64.5605 77.7356 63.5675 77.7438L24.0118 78.0702C23.0188 78.0783 22.2204 78.89 22.2286 79.883Z" fill="#212121"/>
<path d="M15.6006 40.3792C9.15864 40.4324 3.96561 45.7172 4.01875 52.158L4.41935 100.713C4.47249 107.153 9.75201 112.352 16.194 112.299L100.717 111.601C107.148 111.548 112.352 106.31 112.299 99.8226L111.898 51.268C111.845 44.8272 106.565 39.6287 100.123 39.6819L15.6006 40.3792ZM11.2107 52.0987C11.1903 49.6264 13.1935 47.5915 15.66 47.5712L100.183 46.8738C102.649 46.8535 104.686 48.855 104.706 51.3273L104.728 54.0288L11.233 54.8002L11.2107 52.0987ZM11.322 65.5881L104.817 64.8167L105.107 99.882C105.127 102.38 103.134 104.389 100.657 104.409L16.1347 105.107C13.6682 105.127 11.6317 103.126 11.6113 100.653L11.322 65.5881Z" fill="#212121"/>
</svg>
