<svg width="18" height="19" viewBox="0 0 18 19" fill="none" xmlns="http://www.w3.org/2000/svg">
<path d="M7.58434 2.99414H11.3042M6.32522 8.55667L7.01616 7.4644C7.62209 6.50654 8.01156 5.429 8.1576 4.30645L8.32831 2.99414H10.5602L10.7146 4.22321C10.8579 5.36485 11.2496 6.46168 11.8622 7.43732L12.566 8.55818C12.7138 8.79357 12.7921 9.06557 12.7921 9.34315V14.8426C12.7921 15.6606 12.126 16.3237 11.3042 16.3237H7.58434C6.76258 16.3237 6.09641 15.6606 6.09641 14.8426V9.34582C6.09641 9.06656 6.17573 8.79299 6.32522 8.55667ZM6.09641 11.14L6.56384 11.2951C7.6689 11.6617 8.88438 11.4654 9.81625 10.7697L9.97334 10.6524C10.7437 10.0774 11.7598 9.95806 12.6386 10.3289L12.7921 10.3994V14.8426C12.7921 15.6606 12.126 16.3237 11.3042 16.3237H7.58434C6.76258 16.3237 6.09641 15.6606 6.09641 14.8426V11.14Z" stroke="white" stroke-opacity="0.9" stroke-width="1.94954" stroke-linecap="round"/>
</svg>
