<svg width="70" height="70" viewBox="0 0 70 70" fill="none" xmlns="http://www.w3.org/2000/svg">
<path d="M27.2876 58.4375C29.2212 58.4375 30.4077 57.3389 30.3857 55.4932L29.9463 30.5981C29.9463 29.6973 30.2539 29.1699 30.979 28.8403C33.9673 27.5 35.3076 26.0938 35.1099 22.0288L34.4946 8.55957C34.4287 7.52686 33.8354 6.93359 32.8906 6.93359C31.9458 6.93359 31.3965 7.5708 31.3965 8.60352L31.5723 21.6772C31.5723 22.4902 31.0669 22.9736 30.3418 22.9736C29.5947 22.9736 29.0894 22.5122 29.0674 21.7432L28.8477 8.18604C28.8257 7.19727 28.2324 6.58203 27.2876 6.58203C26.3428 6.58203 25.7495 7.19727 25.7275 8.18604L25.5078 21.7432C25.5078 22.4902 24.9805 22.9736 24.2334 22.9736C23.5083 22.9736 23.0029 22.4902 23.0249 21.6772L23.1787 8.60352C23.1787 7.5708 22.6294 6.93359 21.6846 6.93359C20.7397 6.93359 20.1465 7.54883 20.0806 8.55957L19.4653 22.0288C19.2676 26.0938 20.6079 27.5 23.5962 28.8403C24.3213 29.1699 24.6289 29.6973 24.6289 30.5981L24.1895 55.4932C24.1455 57.3389 25.354 58.4375 27.2876 58.4375ZM44.7559 39.0137L44.3164 55.4053C44.2505 57.3389 45.481 58.4375 47.3926 58.4375C49.3481 58.4375 50.5347 57.4268 50.5347 55.603V8.2959C50.5347 7.15332 49.7876 6.58203 48.9087 6.58203C48.0737 6.58203 47.4805 7.04346 46.7554 8.07617C43.1738 13.1079 40.7129 22.7759 40.7129 31.5649V32.7295C40.7129 34.3115 41.2622 35.3882 42.4707 36.2231L43.6572 37.0142C44.4482 37.5635 44.7778 38.1567 44.7559 39.0137Z" fill="#FF0000"/>
</svg>
