<svg width="70" height="70" viewBox="0 0 70 70" fill="none" xmlns="http://www.w3.org/2000/svg">
<path d="M13.9062 56.2183H37.5488C37.5049 55.9326 37.4609 55.647 37.439 55.3394L37.1313 52.0874H14.1699C12.1484 52.0874 11.0938 51.0327 11.0938 48.9893V26.4233C11.0938 25.6543 11.1157 25.3467 11.4453 24.9292L15.708 19.3042C16.0596 18.7988 16.1914 18.4033 16.1914 17.7441V14.0967C16.1914 12.8442 16.7627 12.229 17.9053 12.229H35.6372C36.7798 12.229 37.3511 12.8442 37.3511 14.0967V17.7441C37.3511 18.4033 37.4829 18.7988 37.8345 19.3042L41.8774 24.6216C42.251 24.9072 42.4268 25.127 42.5586 25.5884H46.5137C46.4697 24.3799 46.272 23.8086 45.6567 22.9736L41.3721 17.3047V13.5034C41.3721 10.0977 39.3945 8.20801 35.8569 8.20801H17.6855C14.1479 8.20801 12.1704 10.0977 12.1704 13.5034V17.3047L7.88574 22.9736C7.18262 23.9624 6.96289 24.6875 6.96289 26.3135V49.3408C6.96289 53.8892 9.33594 56.2183 13.9062 56.2183ZM20.9375 18.4473H32.561C33.374 18.4473 34.0332 17.7661 34.0332 16.9531C34.0332 16.1401 33.3521 15.459 32.561 15.459H20.9375C20.1465 15.459 19.4653 16.1401 19.4653 16.9531C19.4653 17.7661 20.1465 18.4473 20.9375 18.4473ZM45.6787 60.0195H55.6982C58.8403 60.0195 60.4224 58.4375 60.752 55.0098L63.0371 31.3892C63.1909 29.8291 62.29 28.7964 60.7959 28.7964H52.688L52.7539 27.8735C52.8418 26.8188 53.1274 26.2256 53.8745 25.6982L61.2354 20.4248C63.125 19.0625 61.1035 16.1621 59.082 17.6343L52.0288 22.7319C50.271 24.0063 49.502 25.4126 49.3042 27.6538L49.2163 28.7964H40.5591C39.0869 28.7964 38.186 29.8511 38.3398 31.3892L40.625 55.0098C40.9546 58.4375 42.5146 60.0195 45.6787 60.0195ZM45.8545 56.0205C45.0635 56.0205 44.668 55.6689 44.5801 54.79L42.4927 32.8174H58.8843L56.7969 54.79C56.709 55.6689 56.3135 56.0205 55.5225 56.0205H45.8545Z" fill="#FF0000"/>
</svg>
